:SAMPLES-PER-SECOND 24
:FULLY-SPECIFIED
:DEGREES
98
root  -5.37963 40.4134 18.0201 -179.293 37.3652 178.639
RightUpLeg  -2.40418 -12.3111 -14.2414
RightLeg  27.0645 -2.32662 -1.51357
RightFoot  -1.29582 -0.894463 10.0518
RightToes  -1.74623e-010 0 -2.59999e-017
Spine  3.63585 1.20332 0.627918
Spine1  13.1712 1.25758 -1.86948
HEad  -5.81043 35.1562 -19.6621
LeftShoulder1  1.79369 -3.72583 -18.2296
LeftArm  17.3954 7.41525 -49.336
LeftForeArm  48.6466 -74.7705 -38.638
LeftHand  -0.0330019 5.10594 3.65482
RightShoulder  2.49412 4.77602 24.0019
RightArm  6.04115 4.63193 43.2995
RightForeArm  133.93 70.5574 147.536
RightHand  -0.201299 -2.86498 -8.76909
LeftUpLeg  -3.2518 19.1356 -0.239951
LeftLeg  18.4651 -0.710029 -2.39405
LeftFoot  -4.55398 0.011719 0.264992
LeftToes  -6.27559e-011 -2.10356e-011 8.24929e-012
99
root  -5.60566 39.3327 19.9201 -178.072 31.2392 178.788
RightUpLeg  0.458012 -12.5841 -17.3098
RightLeg  32.2928 -3.83833 -2.82154
RightFoot  -2.43958 -0.616072 7.70808
RightToes  -1.74623e-010 0 -2.59999e-017
Spine  2.53776 0.799159 -1.84528
Spine1  15.6555 -0.261691 0.875211
HEad  -9.0384 30.8709 -19.6795
LeftShoulder1  1.74924 -3.47829 -18.4912
LeftArm  14.3428 1.54237 -51.4084
LeftForeArm  44.7975 -72.6503 -32.5674
LeftHand  0.0958703 7.28527 7.44681
RightShoulder  2.66239 4.91579 25.5722
RightArm  1.07623 6.2292 40.8686
RightForeArm  113.025 77.4038 122.91
RightHand  -0.223229 -2.95356 -11.1727
LeftUpLeg  -10.721 18.8914 -1.31169
LeftLeg  24.2778 -5.85391 -2.31275
LeftFoot  -10.3077 0.0510782 1.02198
LeftToes  -6.27559e-011 -2.10356e-011 8.24929e-012
100
root  -5.68458 38.7032 21.7525 -179.132 30.4728 178.047
RightUpLeg  3.4989 -8.57535 -20.1752
RightLeg  35.1783 -1.75276 -1.57556
RightFoot  -1.27249 -0.524657 5.87697
RightToes  -1.74623e-010 0 -2.59999e-017
Spine  3.21631 2.26329 -0.705055
Spine1  17.8897 1.98021 -1.6615
HEad  -11.463 26.2348 -19.566
LeftShoulder1  1.7958 -3.37245 -19.6315
LeftArm  10.815 -1.41947 -51.4969
LeftForeArm  47.7815 -71.4669 -28.983
LeftHand  0.524183 11.1641 11.1413
RightShoulder  2.95334 5.24879 27.7771
RightArm  -3.40176 5.12894 42.8363
RightForeArm  79.2868 79.6876 70.2531
RightHand  0.534698 -11.1886 -11.0647
LeftUpLeg  -14.9487 18.3435 -1.24444
LeftLeg  28.6903 -5.25886 -2.75285
LeftFoot  -11.5411 0.0693568 1.09333
LeftToes  -6.27559e-011 -2.10356e-011 8.24929e-012
101
root  -5.66929 38.606 23.5869 -179.78 32.8922 178.213
RightUpLeg  4.94784 -3.35583 -20.9336
RightLeg  35.5428 -0.068583 -0.299513
RightFoot  1.35922 -0.597808 5.44547
RightToes  -1.74623e-010 0 -2.59999e-017
Spine  4.81489 3.97558 2.90213
Spine1  17.9481 5.21974 -5.65854
HEad  -12.0128 23.4793 -20.2953
LeftShoulder1  1.85668 -3.22806 -21.2008
LeftArm  6.87695 1.36809 -49.4828
LeftForeArm  55.7626 -72.8079 -30.571
LeftHand  0.948508 14.7739 12.2027
RightShoulder  3.16105 5.49717 29.1955
RightArm  -5.60741 2.71323 47.5306
RightForeArm  80.6333 78.1856 45.8174
RightHand  -0.93398 -20.4403 5.14484
LeftUpLeg  -17.3013 20.4815 0.207261
LeftLeg  29.7453 -5.23548 -2.8576
LeftFoot  -9.34866 0.0555932 -0.0250819
LeftToes  -6.27559e-011 -2.10356e-011 8.24929e-012
102
root  -5.62895 38.7705 25.4822 -179.423 35.233 179.134
RightUpLeg  5.62989 -1.88183 -21.2426
RightLeg  34.0676 2.05811 1.25477
RightFoot  3.99241 -0.731232 5.63021
RightToes  -1.74623e-010 0 -2.59999e-017
Spine  5.8386 4.55677 5.23097
Spine1  17.2421 6.39661 -6.95833
HEad  -11.597 23.4657 -21.8029
LeftShoulder1  1.84121 -2.97537 -22.0878
LeftArm  3.46563 8.19212 -46.5748
LeftForeArm  60.0803 -74.9183 -35.9766
LeftHand  1.01166 14.8702 12.8164
RightShoulder  3.18954 5.56062 29.2653
RightArm  -2.03339 0.107575 50.0336
RightForeArm  88.0068 78.7918 47.5567
RightHand  -2.30388 -18.6603 18.3081
LeftUpLeg  -18.5877 19.7354 2.32933
LeftLeg  27.3425 -3.36937 -1.53275
LeftFoot  -5.25757 0.14312 -2.09875
LeftToes  -6.27559e-011 -2.10356e-011 8.24929e-012
103
root  -5.5183 38.9031 27.443 -179.555 37.5386 179.743
RightUpLeg  6.12368 -3.56671 -22.2565
RightLeg  32.4633 4.06801 2.55361
RightFoot  6.52378 -0.714957 4.82171
RightToes  -1.74623e-010 0 -2.59999e-017
Spine  6.24555 4.51579 5.72297
Spine1  17.1948 6.26555 -6.41337
HEad  -10.6202 25.2683 -22.7907
LeftShoulder1  1.8649 -2.9968 -22.3742
LeftArm  2.45529 15.0756 -42.9253
LeftForeArm  54.9237 -75.3046 -38.9682
LeftHand  0.828206 12.7675 13.4979
RightShoulder  3.10581 5.47854 28.6389
RightArm  5.72751 -2.24836 49.5619
RightForeArm  92.2313 80.235 65.432
RightHand  -1.37356 -14.1296 16.2604
LeftUpLeg  -18.1046 17.6053 4.74892
LeftLeg  22.9083 0.539378 0.543624
LeftFoot  -0.828051 0.354027 -3.8143
LeftToes  -6.27559e-011 -2.10356e-011 8.24929e-012
104
root  -5.30498 38.8445 29.536 179.746 40.1479 -179.92
RightUpLeg  6.17437 -5.6867 -22.8815
RightLeg  31.8546 5.13674 3.20474
RightFoot  7.32701 -1.03027 6.44424
RightToes  -1.74623e-010 0 -2.59999e-017
Spine  6.55967 4.37297 5.55097
Spine1  17.4957 5.94223 -5.66542
HEad  -8.88111 27.8808 -22.9013
LeftShoulder1  1.9308 -3.32616 -21.9362
LeftArm  4.10477 19.7123 -39.5145
LeftForeArm  42.9464 -73.2154 -34.69
LeftHand  0.542874 10.9036 12.0863
RightShoulder  2.98744 5.33854 27.8247
RightArm  13.3682 -3.61683 48.9874
RightForeArm  112.157 80.4741 97.7027
RightHand  -0.450247 -8.91064 12.676
LeftUpLeg  -16.7772 15.5794 8.14122
LeftLeg  18.6249 4.46828 1.11102
LeftFoot  3.39615 0.574687 -4.61743
LeftToes  -6.27559e-011 -2.10356e-011 8.24929e-012
105
root  -5.00449 38.5461 31.8325 178.811 42.5749 179.958
RightUpLeg  6.27048 -7.50333 -22.9667
RightLeg  31.5231 7.74489 4.87038
RightFoot  2.22053 -1.64281 13.9987
RightToes  -1.74623e-010 0 -2.59999e-017
Spine  6.91147 4.13415 4.42903
Spine1  17.7158 5.38282 -4.662
HEad  -6.99651 30.6757 -22.5919
LeftShoulder1  1.92943 -3.61833 -20.6813
LeftArm  7.01297 21.8982 -37.1643
LeftForeArm  32.6196 -69.3348 -27.5808
LeftHand  0.236261 9.05272 8.43104
RightShoulder  2.8437 5.19026 26.7084
RightArm  18.4259 -3.5158 49.9282
RightForeArm  127.895 78.1064 123.901
RightHand  -0.340517 -7.99096 12.4373
LeftUpLeg  -15.9843 14.1765 11.9666
LeftLeg  15.485 7.83401 0.594034
LeftFoot  7.09976 0.939812 -6.0406
LeftToes  -6.27559e-011 -2.10356e-011 8.24929e-012
106
root  -4.65195 37.9969 34.3267 177.976 44.236 179.541
RightUpLeg  6.46764 -9.7339 -22.2627
RightLeg  31.2923 12.5308 7.88654
RightFoot  -8.94473 -0.481285 19.8904
RightToes  -1.74623e-010 0 -2.59999e-017
Spine  7.13084 3.59845 2.87761
Spine1  18.2572 4.51807 -3.76631
HEad  -6.72206 32.8383 -22.8719
LeftShoulder1  1.89025 -3.64375 -19.9896
LeftArm  9.56703 21.1632 -34.4964
LeftForeArm  28.5988 -65.5694 -22.4758
LeftHand  0.0253257 8.58139 2.47895
RightShoulder  2.70947 5.01129 25.7831
RightArm  20.5299 -1.76722 51.5813
RightForeArm  131.3 75.7044 134.798
RightHand  -0.455388 -8.71079 13.4515
LeftUpLeg  -16.3033 13.5659 15.3693
LeftLeg  13.4732 10.4185 0.515589
LeftFoot  9.13921 1.36264 -7.84403
LeftToes  -6.27559e-011 -2.10356e-011 8.24929e-012
